<?xml version="1.0" encoding="UTF-8"?>
<svg xmlns="http://www.w3.org/2000/svg" xmlns:xlink="http://www.w3.org/1999/xlink" width="24pt" height="24pt" viewBox="0 0 24 24" version="1.1">
<g id="surface2515938">
<path style=" stroke:none;fill-rule:nonzero;fill:rgb(91.764706%,96.470588%,96.470588%);fill-opacity:1;" d="M 7 4 C 4.25 4 2 6.25 2 9 L 2 18 C 2 19.09375 2.90625 20 4 20 L 20 20 C 21.09375 20 22 19.09375 22 18 L 22 9 C 22 6.25 19.75 4 17 4 Z M 7 6 C 8.667969 6 10 7.332031 10 9 L 10 18 L 4 18 L 4 9 C 4 7.332031 5.332031 6 7 6 Z M 10.96875 6 L 17 6 C 18.667969 6 20 7.332031 20 9 L 20 18 L 12 18 L 12 11 L 16 11 L 16 13 L 18 13 L 18 9 L 12 9 C 12 7.871094 11.605469 6.839844 10.96875 6 Z M 6 9 L 6 11 L 8 11 L 8 9 Z M 6 9 "/>
</g>
</svg>
